<svg width="16" height="16" xmlns="http://www.w3.org/2000/svg"><g fill="none" fill-rule="evenodd"><rect fill="#FF8B00" width="16" height="16" rx="2"/><path d="M11.404 5.08c-.292-1.22-1.321-2.21-2.587-2.488-2.286-.503-4.302 1.132-4.317 3.25l.004.125a.857.857 0 0 0 .86.765c.483 0 .875-.378.877-.845-.001-.934.785-1.694 1.753-1.694.967 0 1.753.76 1.753 1.693 0 .932-.786 1.692-1.753 1.692H8a.861.861 0 0 0-.875.835V10.116c0 .467.393.847.877.847s.876-.38.876-.847v-.66a.43.43 0 0 1 .306-.4c1.59-.555 2.649-2.174 2.219-3.976" fill="#FFF"/><ellipse fill="#FFF" cx="8" cy="12.654" rx="1" ry="1"/></g></svg>