<svg width="32" height="32" xmlns="http://www.w3.org/2000/svg"><g fill="none" fill-rule="evenodd"><rect fill="#FF5630" width="32" height="32" rx="2"/><path d="M10.336 9.922l1.702.007a.957.957 0 1 0 .008-1.912L8.058 8A1.053 1.053 0 0 0 7 9.044l.017 4.004a.957.957 0 0 0 1.916-.008l-.007-1.7L15 17.414v7.584A.998.998 0 0 0 16 26c.552 0 1-.454 1-1.007v-7.4c0-.556-.315-1.322-.705-1.713l-5.959-5.958zm12.957-1.63a1 1 0 0 1 1.414 1.415l-5 5a1 1 0 0 1-1.414-1.414l5-5z" fill="#FFF" fill-rule="nonzero"/></g></svg>