<svg width="32" height="32" xmlns="http://www.w3.org/2000/svg"><g fill="none" fill-rule="evenodd"><rect fill="#00B8D9" width="32" height="32" rx="2"/><g transform="translate(9 5.5)" fill="#FFF"><path d="M5.25 17l-1.02 2.462a.995.995 0 0 1-1.306.54.994.994 0 0 1-.541-1.305L3.086 17H5.25zM10.676 17l.702 1.697a.995.995 0 0 1-.541 1.305.997.997 0 0 1-1.306-.54L8.511 17h2.165z"/><path d="M6 .999A.997.997 0 0 1 7 0c.552 0 1 .443 1 .999V3H6V.999zM3 13.997C3 14 10.991 14 10.991 14c.005 0 .009-8.997.009-8.997C11 5 3.009 5 3.009 5 3.004 5 3 13.997 3 13.997zM1 5.003C1 3.897 1.902 3 3.009 3h7.982C12.101 3 13 3.894 13 5.003v8.994A2.007 2.007 0 0 1 10.991 16H3.01A2.004 2.004 0 0 1 1 13.997V5.003z" fill-rule="nonzero"/><rect y="14" width="14" height="2" rx="1"/><rect y="3" width="14" height="2" rx="1"/></g></g></svg>