<svg width="32" height="32" xmlns="http://www.w3.org/2000/svg"><g fill="none" fill-rule="evenodd"><rect width="32" height="32" rx="2" fill="#36B37E"/><path d="M9 14c0 2.589 2.67 5.233 2.67 5.233.455.452.829 1.298.829 1.88 0 .583.525 1.059 1.167 1.059h4.668c.642 0 1.167-.476 1.167-1.059 0-.582.374-1.428.829-1.88 0 0 2.67-2.644 2.67-5.233a7 7 0 0 0-7-7 7 7 0 0 0-7 7zm10.46 10.337c0-.549-.525-.998-1.167-.998h-4.668c-.642 0-1.167.45-1.167.998v.003c0 .55.525.999 1.167.999h4.668c.642 0 1.167-.45 1.167-.999v-.003z" fill="#FFF"/></g></svg>