<svg xmlns="http://www.w3.org/2000/svg" viewBox="0 0 243.6482 176.58"><defs><style>.cls-1{fill:url(#linear-gradient)}.cls-2{fill:#eceef1}.cls-3{fill:url(#linear-gradient-2)}.cls-4{fill:none}.cls-4,.cls-7{stroke:#0065ff;stroke-miterlimit:10;stroke-width:2px}.cls-5{fill:#ff7143}.cls-6{fill:#3384ff}.cls-7{fill:#0065ff}</style><linearGradient id="linear-gradient" x1="122.984" y1="149.327" x2="213.832" y2="58.48" gradientUnits="userSpaceOnUse"><stop offset=".23" stop-color="#0065ff"/><stop offset=".456" stop-color="#1a75ff"/><stop offset=".938" stop-color="#5d9dff"/><stop offset="1" stop-color="#66a3ff"/></linearGradient><linearGradient id="linear-gradient-2" x1="80.784" y1="176.58" x2="80.784" gradientUnits="userSpaceOnUse"><stop offset="0" stop-color="#e5e8ec"/><stop offset=".127" stop-color="#f1f2f5"/><stop offset=".305" stop-color="#f8f9fa"/><stop offset=".707" stop-color="#fafbfc"/></linearGradient></defs><title>Long Memo</title><g id="Layer_2" data-name="Layer 2"><g id="Objects"><path class="cls-1" d="M216.288 60.936a27.363 27.363 0 0 0-27.36 27.36v60.924a27.36 27.36 0 1 1-54.72 0V60.936z"/><path class="cls-2" d="M243.648 88.296v37.884h-54.72V88.296a27.36 27.36 0 1 1 54.72 0"/><path class="cls-3" d="M161.568 176.58H27.36A27.363 27.363 0 0 1 0 149.22V0h134.208v149.22a27.363 27.363 0 0 0 27.36 27.36"/><path class="cls-4" d="M59.321 30.166h51.554M59.321 40.966h51.554M59.321 51.766h51.554M59.321 62.566h27.554M17.321 84.166h93.554M17.321 105.337h93.554M17.321 116.137h69.554M17.321 94.537h93.554M17.321 137.737h93.554M17.321 148.537h93.554M17.321 159.337h69.554"/><path class="cls-5" d="M.001 0h134.208v12.196H.001z"/><path class="cls-6" d="M17.321 30.166h32.4v32.4h-32.4z"/><path class="cls-7" d="M17.321 30.166h32.4v32.4h-32.4z"/></g></g></svg>