<svg xmlns="http://www.w3.org/2000/svg" xmlns:xlink="http://www.w3.org/1999/xlink" viewBox="0 0 195.7204 238.1322"><defs><style>.cls-1{isolation:isolate}.cls-2{fill:#dfe1e5}.cls-3{fill:#e5e8ec;mix-blend-mode:multiply}.cls-4{fill:#fcb123}.cls-5{fill:#ff8b00}.cls-12,.cls-13,.cls-6,.cls-9{fill:none;stroke-width:2px}.cls-6{stroke:#0065ff}.cls-12,.cls-13,.cls-6{stroke-miterlimit:10}.cls-7{fill:#ff7143}.cls-8{fill:#ffd5c4}.cls-12,.cls-9{stroke:#fff}.cls-9{stroke-linejoin:round}.cls-10{fill:#0065ff}.cls-11{fill:#3384ff}.cls-13{stroke:#ffab00;stroke-linecap:square}.cls-14{fill:url(#New_Gradient_Swatch_6)}.cls-15{fill:#feefd3}.cls-16{fill:url(#New_Gradient_Swatch_6-2)}.cls-17{fill:url(#New_Gradient_Swatch_6-3)}</style><linearGradient id="New_Gradient_Swatch_6" data-name="New Gradient Swatch 6" x1="766.792" y1="4845.4" x2="766.792" y2="4776.258" gradientTransform="translate(-727.462 -4752.191)" gradientUnits="userSpaceOnUse"><stop offset="0" stop-color="#ffab00"/><stop offset="1" stop-color="#ffe380"/></linearGradient><linearGradient id="New_Gradient_Swatch_6-2" x1="3480.259" y1="3397.572" x2="3480.259" y2="3328.43" gradientTransform="rotate(-90 214.805 3459.776)" xlink:href="#New_Gradient_Swatch_6"/><linearGradient id="New_Gradient_Swatch_6-3" x1="3477.184" y1="3397.572" x2="3477.184" y2="3397.166" gradientTransform="rotate(-146.222 1318.111 2289.06)" xlink:href="#New_Gradient_Swatch_6"/></defs><title>Collaboration</title><g class="cls-1"><g id="Layer_2" data-name="Layer 2"><g id="Objects"><path id="_Path_" data-name="&lt;Path&gt;" class="cls-2" d="M96.272 103.971l24.915 95.643-90.645 23.613L0 105.984l89.485-23.311 6.77 21.303.017-.005z"/><path class="cls-3" d="M115.096 201.2l4.815-6.486-4.493-17.246-21.764 29.318 21.442-5.586z"/><path class="cls-4" d="M60.192 151.276l26.465-6.894a27.348 27.348 0 1 1-33.359-19.57l.01-.003z"/><path class="cls-5" d="M65.377 143.178l-6.894-26.465a27.479 27.479 0 0 1 33.359 19.57l.06.234z"/><path class="cls-6" d="M34.286 199.397l34.5-8.987M36.52 207.972l25.914-6.751"/><path class="cls-3" d="M96.273 103.971l-.018.005-6.77-21.303-24.95 6.499-8.74 32.577 48.498 13.011-8.02-30.789z"/><path class="cls-7" d="M195.72 45.107l-24.794 95.674-90.675-23.499L110.645 0l69.05 17.895 16.008 27.208.017.004z"/><path class="cls-8" d="M195.703 45.103l-21.608-5.6 5.6-21.608 16.008 27.208z"/><path class="cls-9" d="M95.121 98.289l34.511 8.944M92.898 106.866l25.923 6.718"/><path class="cls-10" d="M195.72 45.107l-24.794 95.674-90.675-23.499L110.645 0l69.05 17.895 16.008 27.208.017.004z"/><path class="cls-11" d="M195.703 45.103l-21.608-5.6 5.6-21.608 16.008 27.208z"/><path class="cls-9" d="M95.121 98.289l34.511 8.944M92.898 106.866l25.923 6.718M117.168 13.22l34.511 8.944M114.945 21.797l36.456 9.448"/><path class="cls-12" d="M111.178 45.008L99.935 88.39l66.957 17.353"/><path class="cls-13" d="M176.737 63.48c-38.187-9.897-38.26 34.9-76.876 24.891"/><path class="cls-10" d="M6.67 21.58h12.299v6.15a6.15 6.15 0 0 1-6.15 6.15 6.15 6.15 0 0 1-6.15-6.15v-6.15z" transform="rotate(139.379 12.819 27.729)"/><path class="cls-14" transform="rotate(139.379 39.33 58.637)" d="M33.18 24.066h12.299v69.142H33.18z"/><path id="_Path_2" data-name="&lt;Path&gt;" class="cls-15" d="M72.252 97.02l-5.747-16.146-9.336 8.008 15.083 8.138z"/><path class="cls-10" d="M72.252 97.02l-2.053-5.769-3.336 2.861 5.389 2.908z"/><path class="cls-4" transform="rotate(139.379 41.664 56.635)" d="M38.589 22.064h6.15v69.142h-6.15z"/><path class="cls-10" d="M146.645 157.073a6.15 6.15 0 0 0-8.53 1.692l-3.42 5.112 10.223 6.838 3.42-5.111a6.15 6.15 0 0 0-1.693-8.531z"/><path class="cls-16" transform="rotate(-56.221 118.03 194.322)" d="M83.459 191.247h69.142v6.15H83.459z"/><path class="cls-10" d="M134.695 163.877l5.111 3.419 5.112 3.419-10.223-6.838z"/><path class="cls-17" d="M134.695 163.877l5.111 3.419 5.112 3.419-10.223-6.838z"/><path class="cls-4" d="M139.806 167.296l-38.441 57.47 5.111 3.419 38.442-57.47-5.112-3.419z"/><path class="cls-15" d="M92.518 238.132l1.213-5.359-1.213 5.359zM96.256 221.349l-2.431 10.743 3.652 2.443-.591.418 9.593-6.766-10.223-6.838z"/><path class="cls-10" d="M93.87 232.16l-.139.613-1.213 5.359 4.413-3.112.592-.417-3.653-2.443z"/></g></g></g></svg>