<svg xmlns="http://www.w3.org/2000/svg" viewBox="0 0 248.9217 207.3391"><defs><style>.cls-1{isolation:isolate}.cls-2{fill:#253858}.cls-3{fill:#505f79}.cls-11,.cls-14,.cls-15,.cls-4,.cls-7,.cls-9{fill:none;stroke-width:2px}.cls-4{stroke:#6c798f}.cls-14,.cls-15,.cls-4,.cls-9{stroke-miterlimit:10}.cls-5{fill:#e5e8ec;mix-blend-mode:multiply}.cls-6{fill:#ff5230}.cls-7,.cls-9{stroke:#ff7143}.cls-11,.cls-7{stroke-linejoin:round}.cls-8{fill:#ff7143}.cls-9{stroke-dasharray:5.6279 5.5397}.cls-10{fill:#ffd5c4}.cls-11,.cls-14{stroke:#fff}.cls-12{fill:#0065ff}.cls-13{fill:#3384ff}.cls-15{stroke:#ff5230;stroke-linecap:square}</style></defs><title>Mult Document</title><g class="cls-1"><g id="Layer_2" data-name="Layer 2"><g id="Objects"><path id="_Path_" data-name="&lt;Path&gt;" class="cls-2" d="M96.272 88.084l24.915 95.642-90.645 23.613L0 90.096l89.485-23.311 6.77 21.303.017-.004z"/><path class="cls-3" d="M60.192 135.389l26.465-6.895a27.348 27.348 0 1 1-33.359-19.57l.01-.003z"/><path class="cls-3" d="M65.377 127.29l-6.894-26.465a27.479 27.479 0 0 1 33.359 19.57l.06.234z"/><path class="cls-4" d="M34.286 183.51l34.5-8.988M36.52 192.084l25.914-6.751"/><path class="cls-5" d="M96.272 88.084l-.017.004-6.77-21.303L47.26 77.784v63.949h62.988L96.272 88.084z"/><path id="_Rectangle_" data-name="&lt;Rectangle&gt;" class="cls-6" transform="rotate(15.201 187.841 123.078)" d="M141.005 62.501h93.671v121.154h-93.671z"/><path class="cls-7" d="M205.8 154.894l7.1-26.132a6.835 6.835 0 0 0-4.803-8.39l-37.23-10.115a6.835 6.835 0 0 0-8.39 4.804l-7.1 26.132"/><circle class="cls-8" cx="155.377" cy="141.193" r="9.989" transform="rotate(-74.799 155.377 141.193)"/><path class="cls-8" d="M218.737 148.83l-20.87-5.869 5.353 21.009 15.517-15.14z"/><path class="cls-9" d="M197.476 85.894l-16.73 61.569"/><path class="cls-8" transform="rotate(15.201 181.104 147.56)" d="M171.716 138.172h18.776v18.776h-18.776z"/><path id="_Rectangle_2" data-name="&lt;Rectangle&gt;" class="cls-8" transform="rotate(15.201 196.985 89.425)" d="M176.796 83.841h40.378v11.167h-40.378z"/><path class="cls-8" d="M175.959 22.322v98.834h-93.67V0h71.331l22.322 22.322h.017z"/><path class="cls-10" d="M175.942 22.322H153.62V0l22.322 22.322z"/><path class="cls-11" d="M91.919 99.04h35.651M91.919 107.901h26.779"/><path class="cls-12" d="M175.959 22.322v98.834h-93.67V0h71.331l22.322 22.322h.017z"/><path class="cls-13" d="M175.942 22.322H153.62V0l22.322 22.322z"/><path class="cls-11" d="M91.919 99.04h35.651M91.919 107.901h26.779M91.919 11.161h35.651M91.919 20.022h37.661"/><path class="cls-14" d="M94.095 43.435v44.816h69.17"/><path class="cls-15" d="M162.192 44.869c-39.448 0-28.28 43.382-68.173 43.382"/></g></g></g></svg>