<svg xmlns="http://www.w3.org/2000/svg" xmlns:xlink="http://www.w3.org/1999/xlink" viewBox="0 0 700 410"><defs><style>.cls-1{fill:url(#linear-gradient)}.cls-2{fill:#1db9d4}.cls-3{fill:#0065ff}.cls-4{fill:url(#linear-gradient-2)}.cls-5{fill:#a27f68}.cls-6{isolation:isolate}.cls-44,.cls-7{opacity:.25}.cls-14,.cls-15,.cls-38,.cls-44,.cls-7{mix-blend-mode:multiply}.cls-8{fill:url(#linear-gradient-3)}.cls-9{clip-path:url(#clip-path)}.cls-10{fill:url(#linear-gradient-5)}.cls-11,.cls-32{fill:none}.cls-12{fill:#f7921e}.cls-13{fill:#ffab00}.cls-14{fill:url(#linear-gradient-6)}.cls-15{fill:url(#linear-gradient-7)}.cls-16{fill:#6c798f;stroke:#5e6c84;stroke-width:3.08px}.cls-16,.cls-32{stroke-linecap:round}.cls-16,.cls-32,.cls-33,.cls-34,.cls-35,.cls-36{stroke-miterlimit:10}.cls-17{fill:#ffc400}.cls-18,.cls-33,.cls-34,.cls-35,.cls-36{fill:#fff}.cls-19{fill:#ffd740}.cls-20{fill:#00c7e5}.cls-21{fill:#091e42}.cls-22{clip-path:url(#clip-path-2)}.cls-23{fill:url(#linear-gradient-8)}.cls-24{fill:url(#linear-gradient-9)}.cls-25{fill:#189cb3}.cls-26{clip-path:url(#clip-path-3)}.cls-27{fill:url(#linear-gradient-10)}.cls-28{fill:#344563}.cls-29{fill:#0052cc}.cls-30{fill:url(#linear-gradient-11)}.cls-31{fill:#d4b696}.cls-32{stroke:#42526e;stroke-width:2.87px}.cls-33,.cls-34,.cls-35{stroke:#ffc400}.cls-33{stroke-width:1.35px}.cls-34{stroke-width:1.92px}.cls-35{stroke-width:1.35px}.cls-36{stroke:#00c7e5;stroke-width:3.28px}.cls-37{clip-path:url(#clip-path-4)}.cls-38{fill:url(#New_Gradient_Swatch_24)}.cls-39{fill:#9c7761}.cls-40{fill:url(#linear-gradient-13)}.cls-41{fill:url(#linear-gradient-14)}.cls-42{fill:url(#linear-gradient-15)}.cls-43{fill:url(#linear-gradient-16)}.cls-44{fill:url(#linear-gradient-17)}.cls-45{fill:#253858}.cls-46{fill:#172b4d}.cls-47{clip-path:url(#clip-path-5)}.cls-48{fill:url(#linear-gradient-18)}</style><linearGradient id="linear-gradient" x1="344.7" y1="388.12" x2="344.7" y2="26.61" gradientUnits="userSpaceOnUse"><stop offset=".15" stop-color="#00b8d9"/><stop offset=".18" stop-color="#1cc2df"/><stop offset=".24" stop-color="#3dcde6"/><stop offset=".3" stop-color="#58d6eb"/><stop offset=".36" stop-color="#6addef"/><stop offset=".42" stop-color="#75e1f1"/><stop offset=".48" stop-color="#79e2f2"/><stop offset=".52" stop-color="#79e2f2"/></linearGradient><linearGradient id="linear-gradient-2" x1="305.04" y1="345.52" x2="455.28" y2="345.52" gradientUnits="userSpaceOnUse"><stop offset="0" stop-color="#dfe1e5"/><stop offset=".28" stop-color="#eeeff1"/><stop offset=".65" stop-color="#fbfbfb"/><stop offset="1" stop-color="#fff"/></linearGradient><linearGradient id="linear-gradient-3" x1="446.39" y1="378.98" x2="452.22" y2="331.5" gradientUnits="userSpaceOnUse"><stop offset="0" stop-color="#091e42"/><stop offset=".19" stop-color="#091e42" stop-opacity=".89"/><stop offset=".49" stop-color="#091e42" stop-opacity=".58"/><stop offset=".84" stop-color="#091e42" stop-opacity=".07"/><stop offset=".88" stop-color="#091e42" stop-opacity="0"/></linearGradient><clipPath id="clip-path"><path class="cls-1" d="M171.81 71.73l345.77-45.12v361.51l-345.77-45.25"/></clipPath><linearGradient id="linear-gradient-5" x1="354.83" y1="78.61" x2="570.88" y2="294.66" gradientUnits="userSpaceOnUse"><stop offset="0" stop-color="#ffe380"/><stop offset="1" stop-color="#ffab00"/></linearGradient><linearGradient id="linear-gradient-6" x1="484.2" y1="205.75" x2="484.2" y2="143.18" gradientUnits="userSpaceOnUse"><stop offset="0" stop-color="#fff0b2"/><stop offset="1" stop-color="#ffc400"/></linearGradient><linearGradient id="linear-gradient-7" x1="484.2" y1="131.07" x2="484.2" y2="60.35" xlink:href="#linear-gradient-6"/><clipPath id="clip-path-2"><path class="cls-2" d="M362.31 220.83l-.2-15.25c.64-2.42 1.51-7.28-1.11-11a7.92 7.92 0 0 0-.64-.82l-11.28-.95c-.84 4.32-1.31 7.38-1.63 10 0 0-.43 3.59-.64 7.14-.65 11 1.58 26.87 1.78 28.31a4.36 4.36 0 0 0 1.71.5 4.49 4.49 0 0 0 2.49-.55l-.55-20.48q.79-4.85 1.38-10.07c.17-1.51.32-3 .46-4.49.75 4.86 1.41 8.78 1.86 11.39.74 4.31 1.15 6.59 2.17 12.45.78 4.52 1.43 8.33 1.91 11.15a3.56 3.56 0 0 0 2.91.83 3.23 3.23 0 0 0 1.64-.9q-1.12-8.63-2.26-17.26z"/></clipPath><linearGradient id="linear-gradient-8" x1="360.75" y1="221.28" x2="364.94" y2="220.44" gradientUnits="userSpaceOnUse"><stop offset="0" stop-color="#00c7e5"/><stop offset=".21" stop-color="#00bcdc"/><stop offset=".43" stop-color="#00b8d9"/></linearGradient><linearGradient id="linear-gradient-9" x1="347.62" y1="215.81" x2="352.61" y2="214.8" gradientTransform="matrix(.99 .08 -.12 .63 30.55 64.9)" xlink:href="#linear-gradient-8"/><clipPath id="clip-path-3"><path class="cls-3" d="M363.51 115.71l-1.23 7.82a14.87 14.87 0 0 0 .18 5.64l6.34 28.21h9.29l3.52-33.85c0-1.12-.32-6.4-4.33-9.36a9.42 9.42 0 0 0-2.5-1.31z"/></clipPath><linearGradient id="linear-gradient-10" x1="364.91" y1="155.65" x2="398.72" y2="124.33" gradientTransform="matrix(1.08 0 0 .99 -31.65 1.9)" gradientUnits="userSpaceOnUse"><stop offset="0" stop-color="#0049b0"/><stop offset=".14" stop-color="#004fc1"/><stop offset=".45" stop-color="#005be3"/><stop offset=".72" stop-color="#0062f7"/><stop offset=".89" stop-color="#0065ff"/></linearGradient><linearGradient id="linear-gradient-11" x1="368.5" y1="98.37" x2="368.5" y2="93.48" gradientUnits="userSpaceOnUse"><stop offset=".18" stop-color="#d4b696"/><stop offset=".37" stop-color="#d1b494"/><stop offset="1" stop-color="#998675"/></linearGradient><clipPath id="clip-path-4"><path class="cls-4" d="M455.28 372.36H305v-53.68h150.28zM329 327.63a16.52 16.52 0 1 0 16.52 16.52A16.52 16.52 0 0 0 329 327.63z"/></clipPath><linearGradient id="New_Gradient_Swatch_24" x1="368.62" y1="348.54" x2="408.66" y2="348.54" gradientUnits="userSpaceOnUse"><stop offset="0" stop-color="#c1c7d0"/><stop offset="1" stop-color="#c1c7d0" stop-opacity=".1"/></linearGradient><linearGradient id="linear-gradient-13" x1="373.03" y1="318.43" x2="369.17" y2="322.37" gradientUnits="userSpaceOnUse"><stop offset=".25" stop-color="#ffab00"/><stop offset=".43" stop-color="#ffa903"/><stop offset=".58" stop-color="#ffa30d"/><stop offset=".71" stop-color="#ff991e"/><stop offset=".72" stop-color="#ff991f"/></linearGradient><linearGradient id="linear-gradient-14" x1="373.32" y1="393.23" x2="373.32" y2="341.04" gradientUnits="userSpaceOnUse"><stop offset=".28" stop-color="#505f79"/><stop offset=".63" stop-color="#344563"/><stop offset="1" stop-color="#344563"/></linearGradient><linearGradient id="linear-gradient-15" x1="369.16" y1="365.96" x2="400.65" y2="365.96" gradientUnits="userSpaceOnUse"><stop offset=".18" stop-color="#505f79"/><stop offset=".42" stop-color="#485773"/><stop offset=".76" stop-color="#344563"/><stop offset="1" stop-color="#344563"/></linearGradient><linearGradient id="linear-gradient-16" x1="368.98" y1="326.12" x2="385.69" y2="327.2" gradientUnits="userSpaceOnUse"><stop offset="0" stop-color="#ffe380"/><stop offset="0" stop-color="#ffe27f"/><stop offset=".15" stop-color="#ffd258"/><stop offset=".3" stop-color="#ffc438"/><stop offset=".46" stop-color="#ffb91f"/><stop offset=".62" stop-color="#ffb10e"/><stop offset=".8" stop-color="#ffac03"/><stop offset="1" stop-color="#ffab00"/></linearGradient><linearGradient id="linear-gradient-17" x1="342.81" y1="399.45" x2="431.07" y2="399.45" gradientUnits="userSpaceOnUse"><stop offset=".12" stop-color="#091e42" stop-opacity="0"/><stop offset=".16" stop-color="#091e42" stop-opacity=".07"/><stop offset=".51" stop-color="#091e42" stop-opacity=".58"/><stop offset=".81" stop-color="#091e42" stop-opacity=".89"/><stop offset="1" stop-color="#091e42"/></linearGradient><clipPath id="clip-path-5"><path class="cls-5" d="M352 169.1l5.43-.79c0-.22.08-.56.16-1 .44-2.19 1.1-2.87 1.3-3.91a4.81 4.81 0 0 0-2.37-4.84 4.58 4.58 0 0 0-5.05.57 4.46 4.46 0 0 0-1.39 2.41v1.62a5.11 5.11 0 0 1-.52.82c-.34.43-.58.57-.54.73s.25.28 1.19.3c.12 1 .23 1.94.35 2.9a1.31 1.31 0 0 0 1.44 1.19z"/></clipPath><linearGradient id="linear-gradient-18" x1="354.69" y1="167.55" x2="354.69" y2="157.27" gradientUnits="userSpaceOnUse"><stop offset="0" stop-color="#253858" stop-opacity=".1"/><stop offset=".72" stop-color="#253858"/></linearGradient></defs><title>on-boarding</title><g class="cls-6"><g id="Layer_1" data-name="Layer 1"><g class="cls-7"><path class="cls-8" d="M201.36 346.31l125.5-15.91 370.69 31.22-176.66 26.5-319.53-41.81"/></g><path class="cls-3" d="M522.52 4.61l-.06.01v-.01l-.07.01v-.01l-.06.01v-.01l-.06.01v-.01l-.06.01v-.01l-.06.01v-.01l-.06.01v-.01l-.07.01v-.01l-.06.01v-.01l-.06.01v-.01l-.06.01v-.01l-.06.01v-.01l-.06.01v-.01l-.07.01v-.01l-.06.01v-.01l-.06.01v-.01l-.06.01v-.01l-.06.01v-.01l-.06.01v-.01l-.07.01v-.01l-.06.01v-.01l-.06.01v-.01l-.06.01v-.01l-.06.01v-.01l-.07.01v-.01l-.06.01v-.01l-.06.01v-.01l-.06.01v-.01l-.06.01v-.01l-.06.01v-.01l-.07.01v-.01l-.06.01v-.01l-.06.01v-.01l-.06.01v-.01l-.06.01v-.01l-.06.01v-.01l-.07.01v-.01l-.06.01v-.01l-.06.01v-.01l-.06.01v-.01l-.06.01v-.01l-.06.01v-.01l-.07.01v-.01l-.06.01v-.01l-.06.01v-.01l-.06.01v-.01l-.06.01v-.01l-.06.01v-.01l-.07.01v-.01l-.06.01v-.01l-.06.01v-.01l-.06.01v-.01l-.06.01v-.01l-.06.01v-.01l-.07.01v-.01l-.06.01v-.01l-.06.01v-.01l-.06.01v-.01l-.06.01v-.01l-.06.01v-.01l-.07.01v-.01l-.06.01v-.01l-.06.01v-.01l-.06.01v-.01l-.06.01v-.01l-.06.01v-.01l-.07.01v-.01l-.06.01v-.01l-.06.01v-.01l-.06.01v-.01l-.06.01v-.01l-.06.01v-.01l-.07.01v-.01l-.06.01v-.01l-.06.01v-.01l-.06.01v-.01l-.06.01v-.01l-.06.01v-.01l-.07.01v-.01l-.06.01v-.01L171.77 52.56l.02 271.31 345.79 64.19v-.01l.06.01v-.01l.07.01v-.01l.06.01v-.01l.06.01v-.01l.06.01v-.01l.06.01v-.01l.06.01v-.01l.07.01v-.01l.06.01v-.01l.06.01v-.01l.06.01v-.01l.06.01v-.01l.06.01v-.01l.07.01v-.01l.06.01v-.01l.06.01v-.01l.06.01v-.01l.06.01v-.01l.06.01v-.01l.07.01v-.01l.06.01v-.01l.06.01v-.01l.06.01v-.01l.06.01v-.01l.06.01v-.01l.07.01v-.01l.06.01v-.01l.06.01v-.01l.06.01v-.01l.06.01v-.01l.06.01v-.01l.07.01v-.01l.06.01v-.01l.06.01v-.01l.06.01v-.01l.06.01v-.01l.06.01v-.01l.07.01v-.01l.06.01v-.01l.06.01v-.01l.06.01v-.01l.06.01v-.01l.06.01v-.01l.07.01v-.01l.06.01v-.01l.06.01v-.01l.06.01v-.01l.06.01v-.01l.06.01v-.01l.07.01v-.01l.06.01v-.01l.06.01v-.01l.06.01v-.01l.06.01v-.01l.06.01v-.01l.07.01v-.01l.06.01v-.01l.06.01v-.01l.06.01v-.01l.06.01v-.01l.07.01v-.01l.06.01v-.01l.06.01v-.01l.06.01v-.01l.06.01v-.01l.06.01v-.01l.07.01v-.01l.06.01v-.01l.06.01v-.01l.06.01v-.01l.06.01v-.01l.06.01v-.01l.07.01v-.01l.06.01v-.01l.06.01v-.01l.06.01v-.01l.06.01v-.01l.06.01v-.01l.07.01v-.01l.06.01V4.61z"/><path class="cls-1" d="M171.81 71.73l345.77-45.12v361.51l-345.77-45.25"/><g class="cls-9"><path class="cls-10" d="M519.58 345.96l-129.12-16.69V42.98l127.41-16.37 1.71 319.35z"/><path class="cls-11" d="M490.92 261.88l27.22.77.44-2.14-27.28-.51-.38 1.88zM519.72 255.04l1.64-7.95-27.37-.33-.68 3.36h26.41v4.92zM477.35 328.84l26.54 2.52 3.15-15.2-26.7-2.09-2.99 14.77zM484.1 295.53l26.88 1.66 3.18-15.38-27.03-1.22-3.03 14.94zM480.72 312.23l26.7 2.09 3.18-15.29-26.87-1.66-3.01 14.86zM487.5 278.75l27.05 1.22 3.2-15.47-27.2-.77-3.05 15.02z"/><path class="cls-12" d="M523.82 235.26l-2.07 10-27.39-.33 2.28-11.22a.93.93 0 1 0-1.82-.37l-3.41 16.8h1.9l.68-3.35 27.37.32-1.64 7.89v5.49h-1.14l-.44 2.14-27.22-.78.38-1.86h-1.89L473.2 340l1.84.23 1.94-9.53 26.53 2.52-2.16 10.42 1.85.23 20.62-99.43zm-19.93 96.1l-26.54-2.52 3-14.77 26.7 2.09zm3.53-17l-26.7-2.09 3-14.86 26.87 1.59zm3.58-17.17l-26.88-1.66 3-14.94 27 1.22zm3.55-17.19l-27-1.22 3.05-15 27.2.78z"/><path class="cls-13" d="M518.58 260.51l1.14.02v-10.41H390.46v8.02l98.95 1.83 1.89.03 27.28.51z"/><path class="cls-11" d="M519.72 255.04l1.64-7.95-27.37-.33-.68 3.36h26.41v4.92zM490.92 261.88l27.22.77.44-2.14-27.28-.51-.38 1.88zM477.35 328.84l26.54 2.52 3.15-15.2-26.7-2.09-2.99 14.77zM484.1 295.53l26.88 1.66 3.18-15.38-27.03-1.22-3.03 14.94zM430.91 88.56c-7.41.78-13.35 7.15-13.35 14.22s5.94 12.3 13.35 11.67 13.65-7 13.65-14.25-6.15-12.44-13.65-11.64zM430.91 164.5c-7.41.4-13.35 6.45-13.35 13.52s5.94 12.62 13.35 12.38 13.65-6.31 13.65-13.54-6.15-12.76-13.65-12.36zM480.72 312.23l26.7 2.09 3.18-15.29-26.87-1.66-3.01 14.86zM487.5 278.75l27.05 1.22 3.2-15.47-27.2-.77-3.05 15.02z"/><path class="cls-12" d="M495.91 232.59a.92.92 0 0 0-1.09.73l-3.41 16.8h1.9l.68-3.35 27.37.32-1.64 7.91v5.49h-1.14l-.44 2.14-27.22-.78.38-1.86h-1.89L473.2 340l1.84.23 1.94-9.53 26.53 2.52-2.16 10.42 1.85.23 20.62-99.43v-9.15l-2.07 10-27.39-.33 2.28-11.22a.93.93 0 0 0-.73-1.15zm8 98.77l-26.54-2.52 3-14.77 26.7 2.09zm3.53-17l-26.7-2.09 3-14.86 26.85 1.59zm3.56-17.17l-26.88-1.66 3-14.94 27 1.22zm3.55-17.19l-27-1.22 3.05-15 27.2.78z"/><path class="cls-13" d="M518.58 260.51l1.14.02v-10.41H390.46v8.02l98.95 1.83 1.89.03 27.28.51z"/><path class="cls-14" d="M407 153.07v52.68l154.33-3.15v-59.42zm23.87 37.33c-7.41.24-13.35-5.3-13.35-12.38s5.94-13.12 13.35-13.52 13.65 5.13 13.65 12.36-6.11 13.29-13.61 13.54z"/><path class="cls-15" d="M407 78.38v52.69l154.33-11.3V60.35zm23.87 36.07c-7.41.63-13.35-4.6-13.35-11.67s5.94-13.44 13.35-14.22 13.69 4.44 13.69 11.64-6.15 13.61-13.65 14.25z"/><path class="cls-16" d="M246.6 60.47v164.25"/><path class="cls-17" d="M198.2 85.18L295 73.87v108l-96.8 1.98V85.18z"/><path class="cls-18" d="M293.15 76v104.06l-93.1 1.9V86.83L293.15 76m3.7-4.16l-100.5 11.7v102.19l100.5-2V71.79z"/><path class="cls-17" d="M517.87 243.96H330.09l61.2-5.55h126.58v5.55z"/><path class="cls-19" d="M517.87 254.36l-188-3.47v-6.94l188 .01v10.4zM517.87 153.82l-185.59 7.05v-6.94l185.59-10.52v10.41z"/><path class="cls-20" d="M196.43 302.15V199.79l100.42.28v112.04l-100.42-9.96z"/><path class="cls-18" d="M198.28 201.65l96.72.26v108.16l-96.72-9.59v-98.83m-3.7-3.71v105.89l104.12 10.33V198.22l-104.12-.28z"/></g><path class="cls-5" d="M353.24 167.77l4.18.19v1.61a.79.79 0 0 0 .44.71l1.32.69a6.23 6.23 0 0 1-2.38 2.03 4.18 4.18 0 0 1-2.78.58 4.33 4.33 0 0 1-2.68-2.15 5 5 0 0 1-.34-.78l1.48-.25a1 1 0 0 0 .79-.86v-.71c.02-.36 0-.72-.03-1.06zM384.42 191.61c-.44-.33-.2-1.25.08-1.77a2.42 2.42 0 0 1 1.45-1.16c.81-.2 1.07.26 2.24.23s1.8-.49 1.95-.29-.24.67-.66 1c-.79.6-1.32.24-2.26.77-.75.42-.69.81-1.52 1.12-.29.12-.93.36-1.28.1z"/><path class="cls-5" d="M387.14 190.1a3.55 3.55 0 0 1 .47.09 5.83 5.83 0 0 0 2.55.25c.68-.13 1.43-.4 1.53-.28.23.27-.85 1-.85 1.21s.26.33 0 .6a3.16 3.16 0 0 1-1 .8 8.33 8.33 0 0 1-3.3 0c-.94-.13-2.64-.68-2.69-1.52 0-.57.68-1.06 1.05-1.28.69.12 1.5.03 2.24.13z"/><path class="cls-21" d="M349 237.81a5 5 0 0 1-.35 1.34 5.88 5.88 0 0 1-2.73 2.87 1.5 1.5 0 0 0-.78 1.09l-.09.58h1.77a24 24 0 0 0 3.11-.79l.89-.62.72.24 1.11-.35.15-3.95zM360 238.17v3.39l1.36.69 2.78 1.44 1.95-.71a2.8 2.8 0 0 0 0-1.39 2.87 2.87 0 0 0-1.21-1.59c-.1-.63-.2-1.27-.31-1.9z"/><path class="cls-2" d="M362.31 220.83l-.2-15.25c.64-2.42 1.51-7.28-1.11-11a7.92 7.92 0 0 0-.64-.82l-11.28-.95c-.84 4.32-1.31 7.38-1.63 10 0 0-.43 3.59-.64 7.14-.65 11 1.58 26.87 1.78 28.31a4.36 4.36 0 0 0 1.71.5 4.49 4.49 0 0 0 2.49-.55l-.55-20.48q.79-4.85 1.38-10.07c.17-1.51.32-3 .46-4.49.75 4.86 1.41 8.78 1.86 11.39.74 4.31 1.15 6.59 2.17 12.45.78 4.52 1.43 8.33 1.91 11.15a3.56 3.56 0 0 0 2.91.83 3.23 3.23 0 0 0 1.64-.9q-1.12-8.63-2.26-17.26z"/><g class="cls-22"><path class="cls-23" d="M366.2 238.5l-3.27.5c-1.16-4.79-2.24-9.91-3.17-15.33-1.21-7.09-2-13.78-2.51-20l4.66-.57z"/><path class="cls-24" transform="rotate(-3.22 351.43 228.144)" d="M349.18 216.8h4.69v22.73h-4.69z"/></g><path class="cls-25" d="M348.57 170.72a19.78 19.78 0 0 1 2.91-.11 5.87 5.87 0 0 0 3 1.33 6 6 0 0 0 4.26-1.21l1.07.28c.65.17.75.18.86.22 2.52 1 2.29 2.85 2.21 5.62a62.41 62.41 0 0 0-1 7 63.37 63.37 0 0 0-.17 8 2.12 2.12 0 0 1 .24 1.6 2.25 2.25 0 0 1-1 1.12c-1.2.73-5.84.26-11.93-1.15-.41-.3-.49-.51-.47-.66s.46-.4.44-.66-.25-.23-.31-.45.23-.67.28-.73c1-1.13 0-13-.11-14.84v-.2c-.25-2-3.05-3.12-5.63-3.82a20.44 20.44 0 0 1 5.35-1.34z"/><path class="cls-5" d="M345.41 116.61c-.08-.54-1-.77-1.59-.77a2.38 2.38 0 0 0-1.71.71c-.57.62-.3 1.07-.88 2.08s-1.29 1.34-1.18 1.57.7.11 1.19-.1c.91-.41.84-1 1.76-1.61.73-.46 1-.22 1.71-.8.29-.2.76-.64.7-1.08z"/><path class="cls-25" d="M338.74 178.24l11.3-1.87.25-5.52a16.77 16.77 0 0 0-2.61 0 16.53 16.53 0 0 0-5.19 1.47 17.35 17.35 0 0 0-3.5 2.19c-.08 1.27-.17 2.49-.25 3.73zM360 179.13a80.3 80.3 0 0 0 4.54 8.2c1.41 2.23 2.84 4.25 4.23 6l2.9-2.57a76.84 76.84 0 0 0-9.62-18.72c-.65 2.4-1.34 4.74-2.05 7.09z"/><path class="cls-25" d="M384.64 188.57v3.66a61.51 61.51 0 0 1-8.15 1.1 64.2 64.2 0 0 1-7.69 0l.85-4.48z"/><path class="cls-3" d="M363.51 115.71l-1.23 7.82a14.87 14.87 0 0 0 .18 5.64l6.34 28.21h9.29l3.52-33.85c0-1.12-.32-6.4-4.33-9.36a9.42 9.42 0 0 0-2.5-1.31z"/><g class="cls-26"><path class="cls-27" transform="rotate(-4.64 380.364 140.51)" d="M370.01 117.73h21.52v45.92h-21.52z"/></g><path class="cls-28" d="M376.31 166.93a26.27 26.27 0 0 1 .55 2.79c.29 2.12.5 3.61-.07 3.91s-2.13-1-2.89-2.1a7.19 7.19 0 0 1-1-2.16c0-1.22.1-2.43.14-3.65a1.88 1.88 0 0 1 1.84-.86 1.92 1.92 0 0 1 1.43 2.07zM362.53 90.07a7.35 7.35 0 0 0 .28 3.41 6.31 6.31 0 0 0-1.75 2 5.83 5.83 0 0 0-.68 4c.38 1.61 1.33 1.74 1.25 2.87s-1.16 1.4-1.79 3a5.26 5.26 0 0 0-.27 2.91c1.06 4.21 17.67 5 19 1.4a4.07 4.07 0 0 0-.54-3.5c-.47-.57-.95-.64-1.07-1.17-.21-.83.8-1.38 1.48-2.56a5.39 5.39 0 0 0-3.65-8 8.43 8.43 0 0 0 0-4.89c-.22-.69-1.19-3.79-4.21-4.85a6.14 6.14 0 0 0-4.31.11c-3.04 1.33-3.65 4.73-3.74 5.27z"/><path class="cls-29" d="M365.63 96.19a5 5 0 0 1 2.58-.58 7.23 7.23 0 0 1 3 .71l.26 1.54-5 2.35-1.68-2.12z"/><path class="cls-30" d="M366 96.71a2.94 2.94 0 0 0 .39-1.07 4.22 4.22 0 0 0 0-2.09 6.29 6.29 0 0 0 2.12 0 24 24 0 0 1 2.4-.06V95a4 4 0 0 0 .15 1.41 1.4 1.4 0 0 0 1 1c-.53.13-1 .41-1.51.58a6.09 6.09 0 0 1-1.47.3 5.57 5.57 0 0 1-1.47 0c-.39 0-.77-.16-1.15-.22a4.21 4.21 0 0 1-.86-.16c-.27-.1-.66-.36-.31-.61a2.33 2.33 0 0 0 .71-.59z"/><path class="cls-31" d="M374.71 98.16c.21 1.08-2.85 3.1-5.94 3.17-3.26.07-6.44-2-6.24-3.07.15-.79 2.21-1 4.08-1.16 2.69-.26 7.84-.27 8.1 1.06z"/><path class="cls-29" d="M344.77 115.71a22.6 22.6 0 0 0 9-1.73 15.81 15.81 0 0 0 6.37-4.3 30.94 30.94 0 0 0 1.94-2.86c2.69-4.2 2.78-5.29 2.54-6.11a2.57 2.57 0 0 0-1.34-1.71 2.45 2.45 0 0 0-1.91.21c-2.15 1-2.14 3.55-4.65 7.4-.49.76-.93 1.34-1.2 1.68l-10.63 4.16z"/><path class="cls-3" d="M371.25 96.32a2.31 2.31 0 0 1-.11 1.7 2.62 2.62 0 0 1-1.12.92 4.18 4.18 0 0 0-1.65 2.06c-.43-1.41-1-1.94-1.54-2.15a2.46 2.46 0 0 1-1-.53 2.35 2.35 0 0 1-.17-2.13 15.84 15.84 0 0 0-2.46 1.38 15.31 15.31 0 0 0-3.41 3.21c.5-.33 1.1-.64 1.36-.43s-.11 1.18-.27 2.34a5 5 0 0 0 .88 3.33 11.57 11.57 0 0 1 2.2 6.51 11.28 11.28 0 0 1-.84 4.42l13.21-.43a11.82 11.82 0 0 1-1.47-7.85 11.16 11.16 0 0 1 1.38-3.7 17.42 17.42 0 0 0 .76-3.54 16.1 16.1 0 0 0 .09-2 5.74 5.74 0 0 0-2.16-1.73c-.55-.24-.93-.29-2-.69-.75-.28-1.31-.52-1.68-.69z"/><path class="cls-31" d="M372.94 89.48a7.69 7.69 0 0 1-.1 2.86 5.18 5.18 0 0 1-.44 1.66 3.49 3.49 0 0 1-1.27 1.53c-1.37.73-3.52-.45-4.66-1.79a5 5 0 0 1-1.24-4.09 3.89 3.89 0 0 1 7.71-.17z"/><path class="cls-28" d="M361.86 97.13c.15.64 1 .93 1.17 1a3.64 3.64 0 0 0 3.97-1.46c.76-1.07 1.05-2.75.43-3.58a1 1 0 0 1-.31-.61c0-.49.63-.86 1.1-1.13 2.72-1.54 3.37-1.82 3.84-2.58a2 2 0 0 0 .36-1.46c-.24-1.07-1.69-1.5-1.95-1.58a5.37 5.37 0 0 0-5 1.43 6.63 6.63 0 0 0-1.69 5.84 5.84 5.84 0 0 0 .51 1.51c-1.72.67-2.63 1.82-2.43 2.62z"/><path class="cls-25" d="M327.31 166.97l3.81 13.31 4.81-1.78-4-13-4.62 1.47z"/><path class="cls-18" d="M482.54 107.82l-139.82 11.3V66.43l139.82-18zM364.31 73c-8.6 1-15.5 9.17-15.5 18.24s6.9 15.77 15.5 15 15.86-9 15.86-18.28S373 71.93 364.31 73z"/><path class="cls-3" d="M465.8 69.21l-76.15 8.65v-4.22l76.15-8.94v4.51zM465.8 76.89l-76.15 8.17v-4.22l76.15-8.45v4.5zM442.53 86.93l-52.88 5.34v-4.22l52.88-5.54v4.42z"/><path class="cls-18" d="M465.72 188.35l-135.85 3.15v-52.69l135.85-9.89zm-114.87-41.43c-8.2.5-14.77 8.11-14.77 17s6.57 15.86 14.77 15.55 15.11-7.92 15.11-17-6.81-16.06-15.11-15.55z"/><path class="cls-3" d="M449.46 148.76l-73.99 4.21v-4.22l73.99-4.5v4.51zM449.46 156.44l-73.99 3.74v-4.22l73.99-4.02v4.5zM426.85 165.12l-51.38 2.26v-4.22l51.38-2.45v4.41z"/><path class="cls-5" d="M328 164.45c-.3 0-.47-.48-.53-.65a1.92 1.92 0 0 1 .33-1.78c.32-.42.59-.4.74-.81s0-.72.18-.79.31.1.41.21a1.42 1.42 0 0 1 .21 1.15c-.12 1.09-.73 2.73-1.34 2.67z"/><path class="cls-5" d="M327.37 165.26a2.19 2.19 0 0 1 .81-2.72l1.37-1.34a.45.45 0 0 1 .45-.2c.17.06.15.44.13.61a1.42 1.42 0 0 1-.5.85c.53-.31 1.16-.62 1.32-.45s.07.12 0 .45a3.69 3.69 0 0 1-.79 1.29c.23-.21.81-.72 1-.56 0 0 .12.08.09.41-.07.76-.65 1-1.42 2.17a3 3 0 0 1-.51.69s-.81.71-1.34.47c-.32-.13-.36-.66-.61-1.67zM341.28 119.38l1.06 1.27a1.16 1.16 0 0 0 1 .42l2.21-.16a1.17 1.17 0 0 0 .87-.5l1.21-1.74-1.69.21a5.25 5.25 0 0 0-.19-1.23c-.05-.11-.3-.32-.46-.21a2.55 2.55 0 0 0-.4.63s.11-.87-.09-1.07-.3 0-.44.09a2.45 2.45 0 0 0-.27 1 3.33 3.33 0 0 0-.27-1 .38.38 0 0 0-.5 0 7.39 7.39 0 0 0-1.07 1.69zM383.28 116.08l1.06 1.28a1.18 1.18 0 0 0 1 .42l2.21-.17a1.12 1.12 0 0 0 .86-.49l1.22-1.74-1.7.21a5.75 5.75 0 0 0-.18-1.24c-.06-.11-.31-.32-.47-.2a2.56 2.56 0 0 0-.39.63s.11-.87-.09-1.07-.3-.06-.45.08a2.63 2.63 0 0 0-.27 1 3.26 3.26 0 0 0-.26-1 .37.37 0 0 0-.5 0 7.29 7.29 0 0 0-1.08 1.69z"/><path class="cls-32" d="M464.25 245.21l29.27.35M460.81 262.16l29.1.83M457.39 279.01l28.92 1.31M453.99 295.78l28.75 1.77M450.61 312.46l28.58 2.24M447.25 329.05l28.4 2.7M443.9 345.55l28.23 3.16M466.74 232.89l-25.89 127.73M496.15 232.89l-27.22 131.29"/><path class="cls-33" d="M206.87 161.99l20.79-23.78 21.64 22.05-42.43 1.73z"/><path class="cls-34" d="M225.7 161.22l30.85-34.69 32.68 32.1-63.53 2.59z"/><path class="cls-35" d="M234.79 117c0 4.27-3.21 8-7.14 8.26s-7.06-2.9-7.06-7.11 3.14-7.91 7-8.25 7.2 2.83 7.2 7.1z"/><path class="cls-36" d="M258.84 221.6l-12.43 29.95 34.88-4.66-22.45-25.29zM235.67 234.92c0 7.65-5.64 13.58-12.62 13.26s-12.44-6.62-12.51-14.08 5.41-13.43 12.31-13.3 12.77 6.46 12.82 14.12zM245.23 294.3l-23.78-13.79 10.53-24.57 24.33 13.43-11.08 24.93z"/><path class="cls-4" d="M455.28 372.36H305v-53.68h150.28zM329 327.63a16.52 16.52 0 1 0 16.52 16.52A16.52 16.52 0 0 0 329 327.63z"/><g class="cls-37"><path class="cls-3" d="M358.39 348.12h57.33v5.76h-57.33zM358.39 328.5h78.17v5.76h-78.17zM358.39 338.31h78.17v5.76h-78.17z"/><path class="cls-38" d="M408 375q-.4-10.45-.49-20.47a51.54 51.54 0 0 0-4.88-7.92c-.11-.14-.54-.61-1.14-1.41a67.05 67.05 0 0 0-5.52-6.52L393.5 336h-.16a20.41 20.41 0 0 0 2-.69c-2.23-6.48-1.78-9.83-.83-11.71a8.11 8.11 0 0 0 1.09-5.5c1.23.43 2.61.89 4.13 1.36a9.46 9.46 0 0 1 2.59-4.64c-.33-.16-.85-.41-1.46-.74-4.14-2.2-4.85-3.6-7.67-4.63l-.2-.07a12.25 12.25 0 0 0-1.59-.66 10.8 10.8 0 0 0-2.64-.61 12.65 12.65 0 0 1-2.71.62 8 8 0 0 1-1.61.08 4.1 4.1 0 0 1-.57-.08 5.25 5.25 0 0 1-1.83-.74 10.18 10.18 0 0 0-2.79.27 10.3 10.3 0 0 0-4.42 2.31 16.12 16.12 0 0 0-2.74 3.73 14.61 14.61 0 0 1 5.68 1.31 20.18 20.18 0 0 1 1.22 3.48c.86 3.48 1.05 8.38-.46 10.71a11 11 0 0 0-1.26 2.53 9.92 9.92 0 0 0-.44 1.7l.63.34a10.33 10.33 0 0 0 .48 6.51c.06.14.12.27.19.41v1c0 3.69.22 5.67.33 8.76 0 1.18.07 2.78 0 4.72a8.6 8.6 0 0 1-1.21 4.2c-4.91 8.19-6.18 12.65-6.24 15.25a33.81 33.81 0 0 1-.66 6.06 36.76 36.76 0 0 1-1.29 4.51c-.17.46-.33.86-.48 1.22l3 1.84q6.94-13.19 13.87-26.38c1.49-3.56 2.94-7.38 4.32-11.43.54.42 1.5 1.16 2.37 1.94s1.05 1 3 3c.55.58 1.39 1.46 2.44 2.53a43.39 43.39 0 0 0 .94 8.15c1 4.63 2.3 6.74 3.7 11.37a58 58 0 0 1 2.14 10.64 4.71 4.71 0 0 0 1.86.44 4.62 4.62 0 0 0 2.42-.62q-.35-6.6-.64-13.49z"/></g><path class="cls-39" d="M374.13 312.53a3.25 3.25 0 0 0 .85-1.46 3.57 3.57 0 0 0 0-1.79 2.51 2.51 0 0 1 .94-1.57c.9-.59 2.34-.18 3.27 1.22a7 7 0 0 0 .1 1 4.79 4.79 0 0 0 .23 1 2.73 2.73 0 0 0 .89 1.41c.5.34 1 .17 1 .27s-1.71 1-3.7 1a7.35 7.35 0 0 1-3.58-1.08z"/><path class="cls-40" d="M384.1 315.32c-.57-2-5.24-2.11-8-2.2-3.63-.11-5.45-.17-7.17.53-2.16.87-3.13 2.19-4.83 5a13.6 13.6 0 0 1 8.15 2.83c4-.21 8.06-.27 10.74-3.42.42-.48 1.41-1.68 1.11-2.74z"/><path class="cls-41" d="M386 341q-1.23 5-2.89 10.31a181.16 181.16 0 0 1-5.65 15.51q-6.94 13.18-13.87 26.37l-3-1.84c.14-.35.3-.76.47-1.22A31.6 31.6 0 0 0 363 379.6c.06-2.59 1.33-7.05 6.25-15.24a8.7 8.7 0 0 0 1.2-4.2v-4.72c-.11-3.09-.38-5.07-.33-8.76 0-1.49.07-2.72.12-3.51 1.19-.22 2.4-.44 3.63-.64 4.22-.68 8.28-1.16 12.13-1.53z"/><path class="cls-42" d="M369.55 338.39l15.94 1.95s2.48 2.74 2.48 2.75a66.88 66.88 0 0 1 5.53 6.51c.6.81 1 1.28 1.14 1.42a46.74 46.74 0 0 1 4.1 6.48 6.51 6.51 0 0 1 .8 3q.09 9.25.46 18.89.27 6.85.65 13.5a4.7 4.7 0 0 1-2.43.62 4.61 4.61 0 0 1-1.86-.45 57.39 57.39 0 0 0-2.13-10.63c-1.4-4.63-2.71-6.74-3.71-11.38a42.22 42.22 0 0 1-.93-8.14c-1.06-1.08-1.9-1.95-2.45-2.53-1.92-2-2.11-2.29-3-3s-2.11-1.72-2.58-2.09-.78-.6-1.3-1c-3.67-2.66-5-3.05-7.75-5.7a10.5 10.5 0 0 1-2.6-3.36 10.64 10.64 0 0 1-.36-6.84z"/><path class="cls-43" d="M387.58 322.19c-.12-.41-.16-.35-.39-1-1.31-3.65 0-5.41-1.37-6.88a5.42 5.42 0 0 0-2.41-1.27 10.8 10.8 0 0 0-2.64-.61 12.46 12.46 0 0 1-2.7.62 6.5 6.5 0 0 1-2.2 0 5.25 5.25 0 0 1-1.83-.74 10.6 10.6 0 0 0-2.8.26 10.4 10.4 0 0 0-4.42 2.32l2.4 3.94a19.43 19.43 0 0 1 1.78 4.62c.86 3.48 1.05 8.38-.45 10.71a10.82 10.82 0 0 0-1.27 2.53 11 11 0 0 0-.44 1.7 21.19 21.19 0 0 0 6.43 2.41 21.67 21.67 0 0 0 12.08-1.17c-2.22-6.48-1.77-9.83-.82-11.71.36-.72 1.76-3.13 1.05-5.73z"/><path class="cls-39" d="M411.32 319.54a2.35 2.35 0 0 0 .78.2 2.16 2.16 0 0 0 1.33-.46 2.22 2.22 0 0 0 .51-.58l1.78-.05a4.79 4.79 0 0 0-1-.6 7.21 7.21 0 0 0-2.65-.4c-1.12-.06-1.44 0-1.8.16-.06 0-.72.42-.66.82s.63.53 1.71.91z"/><path class="cls-39" d="M394.72 324.54c1.76.55 3.19 1 4.06 1.24a22.1 22.1 0 0 0 5.44-1.47 22.32 22.32 0 0 0 7.57-5.17 1.08 1.08 0 0 0 .35-1.14c-.22-.37-.92-.29-1.28-.25a2.74 2.74 0 0 0-.78.22 11.8 11.8 0 0 1-1.32.9c-2.37 1.38-4.09 1.14-7.22 2.25a22.25 22.25 0 0 0-2.29 1c-1-.54-2.25-1.23-3.66-2-2.55-1.46-3.83-2.19-4.68-2.77a24.57 24.57 0 0 0-4.54-2.86 16.19 16.19 0 0 0-2-.68 4.58 4.58 0 0 0-2.59 2.46 3.74 3.74 0 0 0-.18 2c.45 1.89 3.2 3.19 13.12 6.27z"/><path class="cls-17" d="M393.08 320.66a9.4 9.4 0 0 1 1.25-1.52c-.33-.16-.84-.41-1.46-.74-4.14-2.2-4.84-3.61-7.66-4.63-1.48-.54-3.41-1.24-4.69-.25a3.49 3.49 0 0 0-1 3.43 4.15 4.15 0 0 0 1.46 2.17 14 14 0 0 0 5.26 2.8c1.55.56 3.41 1.2 5.54 1.86a9.35 9.35 0 0 1 1.3-3.12z"/><path class="cls-39" d="M380.49 310.51c1-.09 1.57-.14 1.86-.54a5.36 5.36 0 0 0 .17-1.82 2.58 2.58 0 0 1 .16-1.21 1.78 1.78 0 0 1 1-.75 3.56 3.56 0 0 1-1.49-2.13 6.74 6.74 0 0 1-.18-1.37 6.54 6.54 0 0 0-.25-1.39c-.19-.65-.58-1.34-1.24-1.46a10.25 10.25 0 0 1-.56 1.7 3.74 3.74 0 0 1-1.05 1.35 6 6 0 0 1-.75.53c-1.47.9-2.82 3.82-2.32 5.47a1.92 1.92 0 0 0 .65 1 2.19 2.19 0 0 0 .79.33 4.53 4.53 0 0 0 1.14.19 15 15 0 0 0 2.07.1z"/><ellipse class="cls-44" cx="386.94" cy="399.45" rx="44.13" ry="5.95"/><path class="cls-45" d="M361.28 390.17l-2.89 5.75s5.83 3.53 7 3.53h5.2l-.41-.74a2.74 2.74 0 0 0-2.33-1.43 2.88 2.88 0 0 1-2.53-1.74l-.33-.77a2.17 2.17 0 0 1 .11-1.94l.61-1-4.36-1.62M396.25 392.22l.17 6.42h12.67a3.37 3.37 0 0 0-2.66-2l-1.84-.24a3.33 3.33 0 0 1-2.19-1.24l-1.2-1.52v-1.38z"/><path class="cls-46" d="M370.39 316.44c1.74 1.55 4.93 2 6.81.6s1.91-4.25 1.91-4.39a5.9 5.9 0 0 0-.35-2.08c-.45-1.41-1.21-2.83-1.17-4.35a3.28 3.28 0 0 1 .47-1.64 11.23 11.23 0 0 1 2-1.84 13 13 0 0 0 2-2.29c-.36-.44-.75-.87-1.15-1.28a9.66 9.66 0 0 0-.76-.61c-1.52-1.06-4.08-.79-4.63-.73a6.78 6.78 0 0 0-3 .74 5.07 5.07 0 0 0-1.33 1.11 6.14 6.14 0 0 0-1.31 3.69c-.56 7.92-.81 11.9.51 13.07z"/><path class="cls-5" d="M352 169.1l5.43-.79c0-.22.08-.56.16-1 .44-2.19 1.1-2.87 1.3-3.91a4.81 4.81 0 0 0-2.37-4.84 4.58 4.58 0 0 0-5.05.57 4.46 4.46 0 0 0-1.39 2.41v1.62a5.11 5.11 0 0 1-.52.82c-.34.43-.58.57-.54.73s.25.28 1.19.3c.12 1 .23 1.94.35 2.9a1.31 1.31 0 0 0 1.44 1.19z"/><g class="cls-47"><path class="cls-48" d="M350.36 160.82c.34.5 1.37.47 2.09.27 1.14-.3 1.42-1 2.12-.84a1.19 1.19 0 0 1 .79.58 2.81 2.81 0 0 1 .13 1.42 1.3 1.3 0 0 0 .08.64c.14.28.31.23.44.46.22.41-.15.81.07 1.1a.61.61 0 0 0 .48.19l.43-1.44c.39 0 .54.17.6.28.17.31-.2.69-.59 1.86a1.86 1.86 0 0 0-.15.56c-.05.76.58 1.66 1.07 1.65.81 0 1.73-2.49 1.64-4.74 0-.88-.12-3.32-2-4.69a5.16 5.16 0 0 0-3.44-.83 4.83 4.83 0 0 0-2.66.89 3.71 3.71 0 0 0-1.56 2.21 3.37 3.37 0 0 0-.05.79c.08-.4.2-.86.31-.86s.05.28.2.5z"/></g></g></g></svg>