<svg width="24" height="24" xmlns="http://www.w3.org/2000/svg" xmlns:xlink="http://www.w3.org/1999/xlink"><defs><path d="M12.658 6.583c1.328-1.304 3.484-1.528 4.939-.362a3.505 3.505 0 0 1 .274 5.246l-2.233 2.193c-1.4 1.376-3.692 1.376-5.093 0l-.852-.837 1.125-1.106.853.838a2.035 2.035 0 0 0 2.842 0l2.233-2.193c.833-.818.78-2.18-.156-2.93-.815-.652-2.027-.509-2.77.221l-.758.743a.805.805 0 0 1-1.125 0 .77.77 0 0 1 0-1.105l.721-.708zm-1.316 10.834c-1.328 1.304-3.484 1.528-4.939.362a3.505 3.505 0 0 1-.274-5.246l2.233-2.193c1.4-1.376 3.692-1.376 5.093 0l.852.837-1.125 1.106-.853-.838a2.035 2.035 0 0 0-2.842 0l-2.233 2.193c-.833.818-.78 2.18.156 2.93.815.652 2.027.509 2.77-.221l.758-.743a.805.805 0 0 1 1.125 0 .77.77 0 0 1 0 1.105l-.721.708z" id="a"/></defs><use fill="#41516F" xlink:href="#a" fill-rule="evenodd"/></svg>