<svg width="32" height="32" xmlns="http://www.w3.org/2000/svg"><g fill="none" fill-rule="evenodd"><rect width="32" height="32" rx="2" fill="#FF5630"/><path d="M11 22.991c0 .007 14.005.009 14.005.009-.006 0-.005-8.991-.005-8.991C25 14.002 10.995 14 10.995 14c.006 0 .005 8.991.005 8.991zM9 14.01C9 12.899 9.893 12 10.995 12h14.01c1.102 0 1.995.902 1.995 2.009v8.982c0 1.11-.893 2.009-1.995 2.009h-14.01A2.004 2.004 0 0 1 9 22.991V14.01z" fill="#FFF" fill-rule="nonzero"/><path fill="#FF5630" d="M3 5h22v18H3z"/><path d="M7 18.991c0 .007 14.005.009 14.005.009-.006 0-.005-8.991-.005-8.991C21 10.002 6.995 10 6.995 10 7.001 10 7 18.991 7 18.991zM5 10.01C5 8.899 5.893 8 6.995 8h14.01C22.107 8 23 8.902 23 10.009v8.982c0 1.11-.893 2.009-1.995 2.009H6.995A2.004 2.004 0 0 1 5 18.991V10.01z" fill="#FFF" fill-rule="nonzero"/><rect fill="#FFF" x="12" y="12" width="7" height="2" rx="1"/><rect fill="#FFF" x="12" y="15" width="5" height="2" rx="1"/><rect fill="#FFF" x="9" y="12" width="2" height="2" rx="1"/><rect fill="#FFF" x="9" y="15" width="2" height="2" rx="1"/></g></svg>