<svg width="32" height="32" xmlns="http://www.w3.org/2000/svg"><g fill="none" fill-rule="evenodd"><rect width="32" height="32" rx="2" fill="#5243AA"/><path d="M11 15v-1.01a1 1 0 0 0-1-.99c-.556 0-1 .444-1 .99V15H7.99A1 1 0 0 0 7 16c0 .556.444 1 .99 1H9v1.01a1 1 0 0 0 1 .99c.556 0 1-.444 1-.99V17h1.01a1 1 0 0 0 .99-1c0-.556-.444-1-.99-1H11zm-1 6a5 5 0 1 1 0-10 5 5 0 0 1 0 10zM22 21a5 5 0 1 1 0-10 5 5 0 0 1 0 10zm-3-5c0 .556.444 1 .99 1h4.02a1 1 0 0 0 .99-1c0-.556-.444-1-.99-1h-4.02a1 1 0 0 0-.99 1z" fill="#FFF"/></g></svg>