<svg width="16" height="16" xmlns="http://www.w3.org/2000/svg"><path d="M0 8v7a.976.976 0 0 0 .97 1h1.01V7H.97A.976.976 0 0 0 0 8zm15.14-.96a3.006 3.006 0 0 0-2.3-1.061h-2.61c.04-.181.08-.36.11-.532.51-2.934 0-4-.5-4.594A2.4 2.4 0 0 0 8 0a3.061 3.061 0 0 0-2.94 2.751c-.39 1.839-.45 2-.96 2.725l-.76 1.089a2.024 2.024 0 0 0-.36 1.141v6.273a2.005 2.005 0 0 0 2.01 2h7.18a2.994 2.994 0 0 0 2.97-2.507l.67-4a2.982 2.982 0 0 0-.67-2.432zm-1.98 6.1a1 1 0 0 1-.99.835H4.99V7.706l.76-1.089a7.62 7.62 0 0 0 1.29-3.509c.036-.543.428-.995.96-1.108.76 0 .57 1.916.36 3.1a19.85 19.85 0 0 1-.86 2.882l5.34-.008a1 1 0 0 1 .99 1.165l-.67 4.001z" fill="#A5ADBA" fill-rule="evenodd"/></svg>