<svg width="32" height="32" xmlns="http://www.w3.org/2000/svg"><g fill="none" fill-rule="evenodd"><rect fill="#36B37E" x="14" y="13" width="7" height="2" rx="1"/><rect fill="#36B37E" x="11" y="16" width="2" height="2" rx="1"/><rect fill="#36B37E" x="11" y="19" width="2" height="2" rx="1"/><rect fill="#36B37E" x="11" y="13" width="2" height="2" rx="1"/><rect fill="#36B37E" x="14" y="16" width="8" height="2" rx="1"/><rect fill="#36B37E" x="14" y="19" width="6" height="2" rx="1"/><rect width="32" height="32" rx="2" fill="#36B37E"/><path d="M16.05 12.96c.801-1.927.471-4.164-1.022-5.658-1.398-1.397-3.496-1.81-5.41-1.117-.384.139-.505.63-.208.907l2.55 2.55c.2.201.19.537-.023.75l-1.545 1.545c-.213.214-.549.224-.75.023L7.08 9.398c-.266-.285-.756-.164-.895.22-.693 1.914-.28 4.012 1.117 5.41 1.494 1.493 3.73 1.823 5.657 1.021l3.884 3.885c-.802 1.926-.472 4.163 1.022 5.656 1.398 1.398 3.496 1.811 5.41 1.118.384-.139.505-.63.22-.896l-2.562-2.561c-.201-.201-.191-.537.022-.75l1.545-1.546c.214-.213.55-.223.75-.022l2.55 2.55c.278.297.769.176.908-.208.693-1.914.28-4.012-1.118-5.41-1.493-1.494-3.73-1.824-5.656-1.022l-3.885-3.884z" fill="#FFF" fill-rule="nonzero"/></g></svg>