<svg width="32" height="32" xmlns="http://www.w3.org/2000/svg"><g fill="none" fill-rule="evenodd"><rect fill="#5243AA" width="32" height="32" rx="2"/><path d="M10.336 9.922l5.959 5.958c.39.39.705 1.157.705 1.713v7.4c0 .553-.448 1.007-1 1.007-.556 0-1-.448-1-1.002v-7.584L8.926 11.34l.007 1.7a.957.957 0 0 1-1.916.008L7 9.044A1.053 1.053 0 0 1 8.058 8l3.988.017a.957.957 0 1 1-.008 1.912l-1.702-.007zm12.957-1.63a1 1 0 0 1 1.414 1.415l-5 5a1 1 0 0 1-1.414-1.414l5-5z" fill="#FFF" fill-rule="nonzero"/></g></svg>