<svg width="32" height="32" xmlns="http://www.w3.org/2000/svg"><g fill="none" fill-rule="evenodd"><rect width="32" height="32" rx="2" fill="#00B8D9"/><g transform="translate(6 8)" fill="#FFF"><path d="M6.126 7H2C.887 7 0 7.895 0 9v3.73c0 1.31 1.874 2.053 4 2.23v-2.964A3.002 3.002 0 0 1 7 9h.354a4 4 0 0 1-1.228-2zM13.874 7H18c1.105 0 2 .885 2 2v3.73c0 1.31-1.874 2.053-4 2.23v-2.964A3 3 0 0 0 13 9h-.354a4 4 0 0 0 1.228-2zM7.967 2.554a3 3 0 1 0-1.963 3.274 3.999 3.999 0 0 1 1.963-3.274zM13.997 5.828a3 3 0 1 0-1.963-3.276 3.994 3.994 0 0 1 1.963 3.276z"/><path d="M5 12c0-1.105.887-2 2-2h6c1.105 0 2 .885 2 2v3.73c0 3.027-10 3.027-10 0V12z"/><circle cx="10" cy="6" r="3"/></g></g></svg>