<svg viewBox="0 0 286 222" xmlns="http://www.w3.org/2000/svg"><title>Saved for later</title><defs><linearGradient x1="-46.011%" y1="177.482%" x2="93.93%" y2="-8.016%" id="a"><stop stop-color="#C1C7D0" offset="0%"/><stop stop-color="#FAFBFC" offset="100%"/></linearGradient><linearGradient x1="0%" y1="49.999%" y2="49.999%" id="b"><stop stop-color="#EBECF0" stop-opacity=".1" offset="0%"/><stop stop-color="#EBECF0" offset="100%"/></linearGradient></defs><g fill="none" fill-rule="evenodd"><g transform="translate(13 27)"><path fill="url(#a)" fill-rule="nonzero" d="M0 0h243.81v184.62H0z"/><path d="M58 175h129.04M58 166h129.04M58 40h82.5" stroke="#0065FF" stroke-width="2"/><path fill="#FAFBFC" fill-rule="nonzero" d="M57 55h129.96v95.22H57z"/><path fill="#EBECF0" fill-rule="nonzero" d="M0 0h243.81v19.67H0z"/><path fill="#0065FF" fill-rule="nonzero" d="M0 19.67h243.81v10.22H0z"/><path d="M243.81 36.75c-69.18-6-108.85.91-132.52 8.71-4.66 1.53-10.66 3.75-20.52 6.35C55.15 61.23 22.18 61.75 0 60.75V19.67h243.81v17.08z" fill="url(#b)" fill-rule="nonzero" style="mix-blend-mode:multiply"/><circle fill="#344563" fill-rule="nonzero" cx="15.69" cy="9.76" r="5.11"/><circle fill="#A5ADBA" fill-rule="nonzero" cx="32.37" cy="9.76" r="5.11"/><circle fill="#0065FF" fill-rule="nonzero" cx="49.05" cy="9.76" r="5.11"/><path fill="#253858" fill-rule="nonzero" d="M134.19 91.75l38.19 41.44H96z"/><path fill="#0065FF" fill-rule="nonzero" d="M96.25 107l24.25 26.19H72z"/><circle fill="#FFAB00" fill-rule="nonzero" cx="95.9" cy="89.9" r="5.9"/></g><g fill-rule="nonzero"><path d="M230.149 83c-3.963-.014-7.236-3.114-7.488-7.09l-1.157-17.313-14.834-8.862a7.54 7.54 0 0 1-3.647-7.061 7.525 7.525 0 0 1 4.69-6.409l16.005-6.452 3.794-16.916a7.51 7.51 0 0 1 5.55-5.686 7.464 7.464 0 0 1 7.521 2.51l11.056 13.315 17.175-1.603h.705a7.496 7.496 0 0 1 6.55 3.904 7.58 7.58 0 0 1-.219 7.653l-9.18 14.675 6.826 15.938c.994 2.326.76 5-.621 7.117a7.491 7.491 0 0 1-6.247 3.404 7.533 7.533 0 0 1-1.861-.241l-16.724-4.254-12.96 11.443A7.465 7.465 0 0 1 230.15 83z" fill="#F7F8F9"/><path d="M236.876 12.942l11.725 13.938a2.645 2.645 0 0 0 2.272.934l18.233-1.687a2.642 2.642 0 0 1 2.504 1.236c.528.854.52 1.933-.022 2.778l-9.747 15.332a2.606 2.606 0 0 0-.197 2.439l7.237 16.725c.4.917.241 1.981-.412 2.743a2.647 2.647 0 0 1-2.66.839l-17.741-4.446a2.649 2.649 0 0 0-2.384.571l-13.745 12a2.65 2.65 0 0 1-2.752.457 2.621 2.621 0 0 1-1.624-2.254l-1.22-18.12a2.618 2.618 0 0 0-1.29-2.076l-15.75-9.24a2.616 2.616 0 0 1-1.295-2.462c.077-1 .722-1.867 1.66-2.236l16.984-6.76a2.625 2.625 0 0 0 1.599-1.853l4.025-17.743a2.628 2.628 0 0 1 1.95-1.982c.978-.237 2.006.1 2.65.867z" fill="#FFC400"/><path d="M247 63.745c-5.228-4.19-9.288-9.399-9.483-15.363-.167-5.083 2.586-7.667 3.81-12.178 1.46-5.405.598-13.115-7.48-24.204a2.58 2.58 0 0 0-1.794 1.927l-3.99 17.78a2.622 2.622 0 0 1-1.586 1.857l-16.824 6.732a2.625 2.625 0 0 0-1.645 2.24 2.629 2.629 0 0 0 1.284 2.467l15.6 9.301a2.627 2.627 0 0 1 1.28 2.081l1.209 18.156c.064 1 .688 1.877 1.61 2.26.922.383 1.98.205 2.728-.458l13.626-12.025a2.607 2.607 0 0 1 1.655-.573z" fill="#FFF2BF" style="mix-blend-mode:multiply"/></g></g></svg>