<svg id="Layer_1" data-name="Layer 1" xmlns="http://www.w3.org/2000/svg" viewBox="0 0 46 46.1"><defs><style>.cls-1{fill:#707171;}</style></defs><title>devtools_icon</title><g id="JIRA-admin"><g id="_48_i0026_admin-fusion-48" data-name="48/i0026_admin-fusion-48"><g id="i0026_admin-fusion-48" data-name="i0026 admin-fusion-48"><path id="Shape" class="cls-1" d="M15.9,40.4a6.61,6.61,0,0,1-.9-1.2V30.5a7.51,7.51,0,0,0-1.6-4.8C9.8,21.5,3,22.1,1,22v5.3a0.67,0.67,0,0,0,.6.7H4c3,0,6,2,6,4.6V39a8.4,8.4,0,0,0,2,5.4c1.7,1.8,4.2,2.7,7.3,2.7a0.68,0.68,0,0,0,.7-0.7V42a0.68,0.68,0,0,0-.7-0.7A6.94,6.94,0,0,1,15.9,40.4Z" transform="translate(-1 -1)"/><path id="Shape-2" class="cls-1" d="M32.1,7.7A8.66,8.66,0,0,1,33,8.9v8.7a7.51,7.51,0,0,0,1.6,4.8C38.2,26.6,45,25.9,47,26V20.7a0.86,0.86,0,0,0-.6-0.7H44c-3,0-6-2-6-4.6V9.1a7.84,7.84,0,0,0-2-5.4C34.3,1.9,31.8,1,28.7,1a0.68,0.68,0,0,0-.7.7V6.1a0.68,0.68,0,0,0,.7.7A5.31,5.31,0,0,1,32.1,7.7Z" transform="translate(-1 -1)"/><path id="Shape-2-2" data-name="Shape" class="cls-1" d="M19.3,1c-3.2,0-5.7.9-7.3,2.7A8,8,0,0,0,10,9v8.5c0,1.3-1.1,2.2-2.4,2.7a9.63,9.63,0,0,1,3.1,1.1A26.34,26.34,0,0,1,14,22.8a7.94,7.94,0,0,0,2-5.3V9H15.9a1.58,1.58,0,0,1,.5-1.2,3.72,3.72,0,0,1,2.9-1A0.68,0.68,0,0,0,20,6.1V1.7A0.68,0.68,0,0,0,19.3,1h0Z" transform="translate(-1 -1)"/><path id="Shape-3" data-name="Shape" class="cls-1" d="M28.7,47c3.1,0,5.7-.9,7.3-2.7A7.51,7.51,0,0,0,38,39V30.5c0-1.3,1.1-2.2,2.4-2.7a9.63,9.63,0,0,1-3.1-1.1A26.34,26.34,0,0,1,34,25.2a7.94,7.94,0,0,0-2,5.3v8.6h0a1.58,1.58,0,0,1-.5,1.2,3.57,3.57,0,0,1-2.9,1,0.68,0.68,0,0,0-.7.7v4.4a0.87,0.87,0,0,0,.8.6h0Z" transform="translate(-1 -1)"/></g></g></g></svg>