<?xml version="1.0" encoding="iso-8859-1"?>
<!-- Generator: Adobe Illustrator 18.1.1, SVG Export Plug-In . SVG Version: 6.00 Build 0)  -->
<svg version="1.1" id="Layer_1" xmlns="http://www.w3.org/2000/svg" xmlns:xlink="http://www.w3.org/1999/xlink" x="0px" y="0px"
	 viewBox="0 0 300 300" style="enable-background:new 0 0 300 300;" xml:space="preserve">
<g>
	<g>
		<g>
			<circle style="fill:#F7F7F7;" cx="53.32" cy="81.674" r="39.89"/>
		</g>
		<g>
			<g>
				<path style="fill:#717171;" d="M53.407,123.258l-0.011-3.724c3.083-0.009,6.144-0.384,9.098-1.115l0.895,3.615
					C60.146,122.836,56.787,123.249,53.407,123.258z M43.419,122.075c-3.262-0.793-6.43-1.986-9.419-3.546l1.724-3.302
					c2.721,1.422,5.607,2.508,8.575,3.23L43.419,122.075z M72.791,118.447l-1.739-3.295c2.702-1.426,5.235-3.182,7.527-5.221
					l2.475,2.782C78.539,114.951,75.758,116.881,72.791,118.447z M25.709,112.825c-2.521-2.224-4.771-4.75-6.69-7.509l3.057-2.128
					c1.749,2.513,3.801,4.817,6.098,6.843L25.709,112.825z M87.716,105.178l-3.066-2.113c1.742-2.528,3.173-5.257,4.254-8.116
					l3.484,1.317C91.201,99.406,89.629,102.405,87.716,105.178z M14.314,96.426c-1.2-3.137-2.019-6.423-2.43-9.764l3.697-0.455
					c0.375,3.041,1.118,6.032,2.212,8.887L14.314,96.426z M94.778,86.486l-3.699-0.44c0.178-1.495,0.268-3.022,0.268-4.541
					c0-1.546-0.094-3.101-0.278-4.625l3.697-0.447c0.203,1.671,0.306,3.377,0.306,5.072C95.072,83.169,94.973,84.845,94.778,86.486z
					 M15.551,77.042l-3.699-0.433c0.392-3.348,1.188-6.64,2.37-9.782l3.486,1.309C16.633,70.997,15.907,73.994,15.551,77.042z
					 M88.877,67.987c-1.087-2.857-2.524-5.583-4.268-8.102l3.062-2.12c1.915,2.766,3.492,5.759,4.686,8.898L88.877,67.987z
					 M21.946,60.008l-3.072-2.106c1.9-2.77,4.137-5.31,6.648-7.552l2.48,2.779C25.715,55.17,23.677,57.485,21.946,60.008z
					 M78.526,53.028c-2.295-2.033-4.832-3.786-7.541-5.21l1.733-3.295c2.972,1.562,5.758,3.484,8.277,5.716L78.526,53.028z
					 M35.518,47.891l-1.746-3.288c2.976-1.58,6.138-2.795,9.396-3.608l0.902,3.615C41.105,45.348,38.228,46.452,35.518,47.891z
					 M62.417,44.572c-2.961-0.727-6.021-1.095-9.097-1.095l-0.119-2.695l0.056-1.027c0.004,0,0.009,0,0.014,0
					c3.432,0,6.787,0.404,10.034,1.198L62.417,44.572z"/>
			</g>
		</g>
		<g style="opacity:0.15;">
			<path style="fill:#717171;" d="M79.52,51.609c-18.281,3.639-32.061,19.766-32.061,39.117c0,11.999,5.305,22.752,13.689,30.065
				c18.281-3.639,32.061-19.766,32.061-39.117C93.21,69.675,87.905,58.921,79.52,51.609z"/>
		</g>
		<g>
			<circle style="fill:#FFFFFF;stroke:#717171;stroke-width:3.7244;stroke-miterlimit:10;" cx="91.614" cy="81.674" r="39.89"/>
		</g>
		<g>
			<path style="fill:#717171;" d="M86.948,95.305l-1.264-1.264c-0.403-0.403-0.403-1.063,0-1.467l26.648-26.648
				c0.403-0.403,1.063-0.403,1.467,0l1.264,1.264c0.403,0.403,0.403,1.063,0,1.467L88.415,95.305
				C88.011,95.708,87.351,95.708,86.948,95.305z"/>
		</g>
		<g>
			<path style="fill:#717171;" d="M87.868,95.305l1.264-1.264c0.403-0.403,0.403-1.063,0-1.467L76.171,79.612
				c-0.403-0.403-1.063-0.403-1.467,0l-1.264,1.264c-0.403,0.403-0.403,1.063,0,1.467l12.961,12.961
				C86.805,95.708,87.465,95.708,87.868,95.305z"/>
		</g>
	</g>
	<g>
		<g>
			<g>
				<path style="fill:#F7F7F7;" d="M266.005,133.175h-64.905c-1.375,0-2.5-1.125-2.5-2.5V51.758c0-1.375,1.125-2.5,2.5-2.5h64.905
					c1.375,0,2.5,1.125,2.5,2.5v78.918C268.505,132.05,267.38,133.175,266.005,133.175z"/>
			</g>
			<g>
				<path style="fill:#717171;" d="M263.849,135.037h-60.595c-3.593,0-6.518-2.924-6.518-6.518V53.914
					c0-3.593,2.924-6.518,6.518-6.518h60.595c3.593,0,6.518,2.924,6.518,6.518v74.606
					C270.367,132.113,267.443,135.037,263.849,135.037z M203.255,51.121c-1.54,0-2.793,1.253-2.793,2.793v74.606
					c0,1.54,1.253,2.793,2.793,2.793h60.595c1.54,0,2.793-1.253,2.793-2.793V53.914c0-1.54-1.253-2.793-2.793-2.793H203.255z"/>
			</g>
		</g>
		<g style="opacity:0.15;">
			<g>
				<path style="fill:#717171;" d="M268.505,129.943V55.336c0-2.561-2.095-4.655-4.655-4.655h-45.076v83.918h45.076
					C266.41,134.598,268.505,132.503,268.505,129.943z"/>
			</g>
		</g>
		<g>
			<g>
				<path style="fill:#FFFFFF;" d="M282.136,121.028h-68.501c-1.1,0-2-0.9-2-2V39.611c0-1.375,1.125-2.5,2.5-2.5h68.001
					c1.1,0,2,0.9,2,2v79.918C284.136,120.128,283.236,121.028,282.136,121.028z"/>
			</g>
			<g>
				<path style="fill:#717171;" d="M280.411,122.89h-65.052c-3.081,0-5.587-2.506-5.587-5.587V41.766
					c0-3.593,2.924-6.518,6.518-6.518h64.121c3.081,0,5.587,2.506,5.587,5.587v76.468
					C285.997,120.384,283.491,122.89,280.411,122.89z M216.29,38.973c-1.54,0-2.793,1.253-2.793,2.793v75.537
					c0,1.027,0.836,1.862,1.862,1.862h65.052c1.027,0,1.862-0.835,1.862-1.862V40.835c0-1.027-0.836-1.862-1.862-1.862H216.29z"/>
			</g>
		</g>
		<g>
			<g>
				<path style="fill:#717171;" d="M240.408,60.144v-1.788c0-0.57,0.467-1.037,1.037-1.037h29.772c0.57,0,1.037,0.467,1.037,1.037
					v1.788c0,0.57-0.467,1.037-1.037,1.037h-29.772C240.875,61.181,240.408,60.714,240.408,60.144z"/>
			</g>
		</g>
		<g>
			<g>
				<path style="fill:#717171;" d="M226.248,63.974h4.526c1.444,0,2.625-1.181,2.625-2.625v-4.526c0-1.444-1.181-2.625-2.625-2.625
					h-4.526c-1.444,0-2.625,1.181-2.625,2.625v4.526C223.623,62.793,224.804,63.974,226.248,63.974z"/>
			</g>
		</g>
		<g style="opacity:0.5;">
			<g>
				<path style="fill:#717171;" d="M240.408,78.903v-1.788c0-0.57,0.467-1.037,1.037-1.037h29.772c0.57,0,1.037,0.467,1.037,1.037
					v1.788c0,0.57-0.467,1.037-1.037,1.037h-29.772C240.875,79.94,240.408,79.473,240.408,78.903z"/>
			</g>
		</g>
		<g style="opacity:0.5;">
			<g>
				<path style="fill:#717171;" d="M226.248,82.733h4.526c1.444,0,2.625-1.181,2.625-2.625v-4.526c0-1.444-1.181-2.625-2.625-2.625
					h-4.526c-1.444,0-2.625,1.181-2.625,2.625v4.526C223.623,81.552,224.804,82.733,226.248,82.733z"/>
			</g>
		</g>
		<g style="opacity:0.5;">
			<g>
				<path style="fill:#717171;" d="M240.408,97.662v-1.788c0-0.57,0.467-1.037,1.037-1.037h29.772c0.57,0,1.037,0.467,1.037,1.037
					v1.788c0,0.57-0.467,1.037-1.037,1.037h-29.772C240.875,98.699,240.408,98.232,240.408,97.662z"/>
			</g>
		</g>
		<g style="opacity:0.5;">
			<g>
				<path style="fill:#717171;" d="M226.248,101.492h4.526c1.444,0,2.625-1.181,2.625-2.625v-4.526c0-1.444-1.181-2.625-2.625-2.625
					h-4.526c-1.444,0-2.625,1.181-2.625,2.625v4.526C223.623,100.311,224.804,101.492,226.248,101.492z"/>
			</g>
		</g>
	</g>
	<g>
		<g>
			<rect x="77.902" y="234.667" style="fill:#717171;" width="68.929" height="3.724"/>
		</g>
		<g>
			<circle style="fill:#717171;" cx="86.753" cy="236.53" r="8.851"/>
		</g>
		<g>
			<path style="fill:#717171;" d="M138.406,268.698c-17.391,0-31.539-14.148-31.539-31.539V235.9
				c0-17.391,14.148-31.539,31.539-31.539v3.724c-15.337,0-27.815,12.477-27.815,27.815v1.258c0,15.338,12.478,27.815,27.815,27.815
				V268.698z"/>
		</g>
		<g>
			<path style="fill:#F7F7F7;" d="M132.446,215.986h60.913c1.1,0,2-0.9,2-2v-20.511c0-1.375-1.125-2.5-2.5-2.5h-60.413
				c-1.1,0-2,0.9-2,2v21.011C130.446,215.086,131.346,215.986,132.446,215.986z"/>
			<path style="fill:#717171;" d="M191.634,217.849H134.17c-3.081,0-5.587-2.506-5.587-5.587v-17.563
				c0-3.081,2.506-5.587,5.587-5.587h56.533c3.593,0,6.518,2.924,6.518,6.518v16.632
				C197.221,215.343,194.715,217.849,191.634,217.849z M134.17,192.837c-1.027,0-1.862,0.835-1.862,1.862v17.563
				c0,1.027,0.836,1.862,1.862,1.862h57.464c1.027,0,1.862-0.835,1.862-1.862V195.63c0-1.54-1.253-2.793-2.793-2.793H134.17z"/>
		</g>
		<g>
			<path style="fill:#FFFFFF;" d="M132.446,249.035h60.913c1.1,0,2-0.9,2-2v-20.511c0-1.375-1.125-2.5-2.5-2.5h-60.413
				c-1.1,0-2,0.9-2,2v21.011C130.446,248.135,131.346,249.035,132.446,249.035z"/>
			<path style="fill:#717171;" d="M191.634,250.898H134.17c-3.081,0-5.587-2.506-5.587-5.587v-17.564
				c0-3.081,2.506-5.587,5.587-5.587h56.533c3.593,0,6.518,2.924,6.518,6.518v16.632
				C197.221,248.392,194.715,250.898,191.634,250.898z M134.17,225.886c-1.027,0-1.862,0.835-1.862,1.862v17.564
				c0,1.027,0.836,1.862,1.862,1.862h57.464c1.027,0,1.862-0.835,1.862-1.862v-16.632c0-1.54-1.253-2.793-2.793-2.793H134.17z"/>
		</g>
		<g>
			<path style="fill:#F7F7F7;" d="M132.446,282.084h60.913c1.1,0,2-0.9,2-2v-20.512c0-1.375-1.125-2.5-2.5-2.5h-60.413
				c-1.1,0-2,0.9-2,2v21.012C130.446,281.184,131.346,282.084,132.446,282.084z"/>
			<path style="fill:#717171;" d="M191.634,283.946H134.17c-3.081,0-5.587-2.506-5.587-5.587v-17.563
				c0-3.081,2.506-5.587,5.587-5.587h56.533c3.593,0,6.518,2.924,6.518,6.518v16.632
				C197.221,281.44,194.715,283.946,191.634,283.946z M134.17,258.934c-1.027,0-1.862,0.835-1.862,1.862v17.563
				c0,1.027,0.836,1.862,1.862,1.862h57.464c1.027,0,1.862-0.835,1.862-1.862v-16.632c0-1.54-1.253-2.793-2.793-2.793H134.17z"/>
		</g>
		<g>
			<path style="fill:#717171;" d="M155.003,237.587v-1.788c0-0.57,0.467-1.037,1.037-1.037h29.772c0.57,0,1.037,0.467,1.037,1.037
				v1.788c0,0.57-0.467,1.037-1.037,1.037H156.04C155.47,238.624,155.003,238.158,155.003,237.587z"/>
		</g>
		<g>
			<path style="fill:#717171;" d="M140.843,241.418h4.526c1.444,0,2.625-1.181,2.625-2.625v-4.526c0-1.444-1.181-2.625-2.625-2.625
				h-4.526c-1.444,0-2.625,1.181-2.625,2.625v4.526C138.218,240.237,139.399,241.418,140.843,241.418z"/>
		</g>
		<g style="opacity:0.5;">
			<path style="fill:#717171;" d="M155.003,204.539v-1.788c0-0.57,0.467-1.037,1.037-1.037h29.772c0.57,0,1.037,0.467,1.037,1.037
				v1.788c0,0.57-0.467,1.037-1.037,1.037H156.04C155.47,205.576,155.003,205.109,155.003,204.539z"/>
		</g>
		<g style="opacity:0.5;">
			<path style="fill:#717171;" d="M140.843,208.369h4.526c1.444,0,2.625-1.181,2.625-2.625v-4.526c0-1.444-1.181-2.625-2.625-2.625
				h-4.526c-1.444,0-2.625,1.181-2.625,2.625v4.526C138.218,207.188,139.399,208.369,140.843,208.369z"/>
		</g>
		<g style="opacity:0.5;">
			<path style="fill:#717171;" d="M155.003,270.636v-1.788c0-0.57,0.467-1.037,1.037-1.037h29.772c0.57,0,1.037,0.467,1.037,1.037
				v1.788c0,0.57-0.467,1.037-1.037,1.037H156.04C155.47,271.673,155.003,271.207,155.003,270.636z"/>
		</g>
		<g style="opacity:0.5;">
			<path style="fill:#717171;" d="M140.843,274.467h4.526c1.444,0,2.625-1.181,2.625-2.625v-4.527c0-1.444-1.181-2.625-2.625-2.625
				h-4.526c-1.444,0-2.625,1.181-2.625,2.625v4.527C138.218,273.285,139.399,274.467,140.843,274.467z"/>
		</g>
	</g>
	<path style="fill:#F79232;" d="M253.078,147.769c-4.452,25.792-18.641,48.291-38.628,63.571c0.529,1.51,1.004,3.044,1.422,4.602
		c22.073-16.337,37.633-40.996,41.988-69.304C256.29,147.073,254.695,147.451,253.078,147.769z"/>
	<g>
		<path style="fill:#F79232;" d="M52.017,145.637c-1.639-0.549-3.248-1.162-4.826-1.835c3.754,29.703,19.802,55.627,42.872,72.5
			c0.409-1.559,0.875-3.095,1.395-4.606C70.673,195.994,56.07,172.521,52.017,145.637z"/>
		<path style="fill:#F79232;" d="M152.723,24.015c-14.386,0-28.111,2.876-40.639,8.075c1.371,1.043,2.7,2.14,3.983,3.287
			c11.38-4.405,23.74-6.828,36.657-6.828c14.962,0,29.18,3.244,41.989,9.064c1.163-1.149,2.37-2.254,3.616-3.313
			C184.498,27.71,169.035,24.015,152.723,24.015z"/>
	</g>
	<g>
		<path style="fill:#F79232;" d="M157.838,117.035v11.697h11.212v5.045h-11.212v11.806h-5.261v-11.806h-11.216v-5.045h11.216
			v-11.697H157.838z"/>
	</g>
</g>
</svg>
