<svg width="24" height="24" xmlns="http://www.w3.org/2000/svg" xmlns:xlink="http://www.w3.org/1999/xlink"><defs><rect id="a" x="5.25" y="10.5" width="4.5" height="4.5" rx="1"/><rect id="b" x="5.25" y="5.25" width="4.5" height="4.5" rx="1"/></defs><g fill="none" fill-rule="evenodd"><g transform="translate(7.125 4.5)"><use fill="#42526E" xlink:href="#a"/><rect stroke="#42526E" stroke-width="2" x="6.25" y="11.5" width="2.5" height="2.5" rx="1"/></g><g transform="translate(7.125 4.5)"><use fill="#42526E" xlink:href="#b"/><rect stroke="#42526E" stroke-width="2" x="6.25" y="6.25" width="2.5" height="2.5" rx="1"/></g><path d="M8.625 8.25v7.418c0 1.384.8 2.335 2.25 2.335h2.792l-.003-1.494h-2.789c-.49 0-.75-.29-.75-.84V8.25h-1.5z" fill="#42526E"/><path d="M10.125 9v1.418c0 .552.26.84.75.84h2.79l.002 1.495h-2.792c-1.45 0-2.25-.95-2.25-2.335V9h-.5a1 1 0 0 1-1-1V5.5a1 1 0 0 1 1-1h2.5a1 1 0 0 1 1 1V8a1 1 0 0 1-1 1h-.5z" fill="#42526E"/></g></svg>