<svg width="16" height="16" xmlns="http://www.w3.org/2000/svg"><g fill="#42526E" fill-rule="nonzero"><path d="M10.687 11.292a.983.983 0 0 0-1.397 0 1 1 0 0 0 0 1.407l1.964 1.98a1.082 1.082 0 0 0 1.538 0l1.919-1.933a1 1 0 0 0 0-1.408.983.983 0 0 0-1.398 0l-1.29 1.3-1.336-1.346z"/><path d="M13.001 13.993L13 4.006C13 3.451 12.552 3 12 3s-1 .45-1 1.007l.001 9.987c0 .555.448 1.006 1 1.006s1-.45 1-1.007zM3 8h4.394V6H3z"/><path d="M5 4.018l2.08 5.374a1 1 0 0 0 1.84-.784l-2.983-7c-.345-.809-1.49-.811-1.838-.004l-3.017 7a1 1 0 1 0 1.837.792L5 4.018z"/></g></svg>