<svg width="24" height="24" xmlns="http://www.w3.org/2000/svg" xmlns:xlink="http://www.w3.org/1999/xlink"><defs><path d="M6.085 6.81c0-1.103.89-1.998 2.007-1.998h7.816c1.108 0 2.007.9 2.007 1.999v10.378c0 1.104-.89 2-2.007 2H8.092c-1.108 0-2.007-.9-2.007-2V6.811zm1.547-.451v11.282h8.736V6.359H7.632zm1.274 2.32c0-.427.346-.773.764-.773h4.91c.423 0 .765.343.765.773a.771.771 0 0 1-.764.774H9.67a.767.767 0 0 1-.764-.774zm0 2.321c0-.427.346-.774.764-.774h4.91c.423 0 .765.344.765.774a.771.771 0 0 1-.764.774H9.67A.767.767 0 0 1 8.906 11zm0 2.32a.78.78 0 0 1 .78-.773h1.533c.431 0 .781.343.781.774a.78.78 0 0 1-.78.773H9.686a.775.775 0 0 1-.781-.773z" id="a"/></defs><use fill="#42526E" fill-rule="nonzero" xlink:href="#a"/></svg>