<svg width="24" height="24" xmlns="http://www.w3.org/2000/svg"><g fill="#42526E" fill-rule="evenodd"><path d="M15.5 18v2h2v-2h-2zm-1-2h4a1 1 0 0 1 1 1v4a1 1 0 0 1-1 1h-4a1 1 0 0 1-1-1v-4a1 1 0 0 1 1-1zM15.5 11v2h2v-2h-2zm-1-2h4a1 1 0 0 1 1 1v4a1 1 0 0 1-1 1h-4a1 1 0 0 1-1-1v-4a1 1 0 0 1 1-1z" fill-rule="nonzero"/><path d="M7.5 7v9.891c0 1.845 1.066 3.114 3 3.114h3.722l-.003-1.993H10.5c-.653 0-1-.386-1-1.121V7h-2z"/><path d="M9.5 8v1.891c0 .735.347 1.12 1 1.12h3.72l.002 1.994H10.5c-1.934 0-3-1.269-3-3.114V8h-1a1 1 0 0 1-1-1V3a1 1 0 0 1 1-1h4a1 1 0 0 1 1 1v4a1 1 0 0 1-1 1h-1z"/></g></svg>