<svg width="24" height="24" xmlns="http://www.w3.org/2000/svg" xmlns:xlink="http://www.w3.org/1999/xlink"><defs><path d="M6.717 6.72h10.566c.831 0 1.505.676 1.505 1.504v9.06c0 .83-.673 1.504-1.505 1.504H6.717a1.505 1.505 0 0 1-1.505-1.504v-9.06c0-.83.673-1.504 1.505-1.504zm.003 3.017v6.788c0 .417.338.755.755.755h9.05a.754.754 0 0 0 .755-.755V9.737H6.72zm.755-3.77a.754.754 0 0 1 1.508 0v.753H7.475v-.754zm7.542 0a.754.754 0 0 1 1.508 0v.753h-1.508v-.754zm-6.788 6.787v-1.509h1.508v1.51H8.23zm6.034 0v-1.509h1.508v1.51h-1.508zm-3.017 0v-1.509h1.509v1.51h-1.51zm-3.017 3.017v-1.508h1.508v1.508H8.23zm3.017 0v-1.508h1.509v1.508h-1.51zm3.017 0v-1.508h1.508v1.508h-1.508z" id="a"/></defs><use fill="#42526E" xlink:href="#a" fill-rule="evenodd"/></svg>