<svg width="24" height="24" xmlns="http://www.w3.org/2000/svg" xmlns:xlink="http://www.w3.org/1999/xlink"><defs><path d="M15.383 6.015c-1.465 0-2.654 1.223-2.654 2.732 0 1.507 1.19 2.73 2.654 2.73 2.516 0 1.058 4.745-2.115 5.24a.634.634 0 0 0-.54.625c0 .388.348.694.732.636 5.768-.875 7.82-11.963 1.923-11.963m-7.648 0c-1.466 0-2.655 1.223-2.655 2.732 0 1.507 1.189 2.73 2.655 2.73 2.516 0 1.058 4.745-2.116 5.24a.634.634 0 0 0-.539.625c0 .388.347.694.73.636 5.77-.875 7.821-11.963 1.925-11.963" id="a"/></defs><use fill="#3F4F71" xlink:href="#a" fill-rule="evenodd"/></svg>